<?xml version="1.0" encoding="UTF-8"?>
<svg width="14px" height="14px" viewBox="0 0 14 14" version="1.1" xmlns="http://www.w3.org/2000/svg" xmlns:xlink="http://www.w3.org/1999/xlink">
    <title>bmxx</title>
    <g id="预录入" stroke="none" stroke-width="1" fill="none" fill-rule="evenodd">
        <g id="体检信息列表" transform="translate(-16.000000, -145.000000)">
            <g id="bmxx" transform="translate(16.000000, 145.000000)">
                <rect id="jx5" x="0" y="0" width="14" height="14"></rect>
                <path d="M2.5638852,1.5 L2.5638852,1.5 L11.4361148,1.5 C12.1860349,1.5 12.4650013,1.56040884 12.7410463,1.7080393 C12.9785491,1.83505722 13.1649428,2.02145086 13.2919607,2.25895373 C13.4395912,2.53499868 13.5,2.81396507 13.5,3.5638852 L13.5,3.5638852 L13.5,8.4361148 C13.5,9.18603493 13.4395912,9.46500132 13.2919607,9.74104627 C13.1649428,9.97854914 12.9785491,10.1649428 12.7410463,10.2919607 C12.4650013,10.4395912 12.1860349,10.5 11.4361148,10.5 L11.4361148,10.5 L2.5638852,10.5 C1.81396507,10.5 1.53499868,10.4395912 1.25895373,10.2919607 C1.02145086,10.1649428 0.835057224,9.97854914 0.708039303,9.74104627 C0.560408843,9.46500132 0.5,9.18603493 0.5,8.4361148 L0.5,8.4361148 L0.5,3.5638852 C0.5,2.81396507 0.560408843,2.53499868 0.708039303,2.25895373 C0.835057224,2.02145086 1.02145086,1.83505722 1.25895373,1.7080393 C1.53499868,1.56040884 1.81396507,1.5 2.5638852,1.5 L2.5638852,1.5 Z" id="jx4" stroke="#FFFFFF"></path>
                <polygon id="jx3" fill="#FFFFFF" transform="translate(5.369012, 7.009668) rotate(-45.000000) translate(-5.369012, -7.009668) " points="4.88048543 5.00966801 5.77915069 5.04605118 5.85753787 8.99369911 4.88268428 9.00966801"></polygon>
                <rect id="jx2" fill="#FFFFFF" transform="translate(8.207107, 6.292893) rotate(-315.000000) translate(-8.207107, -6.292893) " x="7.70710678" y="3.29289322" width="1" height="6"></rect>
                <rect id="jx" fill="#FFFFFF" x="3" y="12" width="8" height="1" rx="0.5"></rect>
            </g>
        </g>
    </g>
</svg>
