<?xml version="1.0" encoding="UTF-8"?>
<svg width="26px" height="26px" viewBox="0 0 26 26" version="1.1" xmlns="http://www.w3.org/2000/svg" xmlns:xlink="http://www.w3.org/1999/xlink">
    <title>清除图片</title>
    <defs>
        <path d="M4.99850583,-1.51942422 L5.00149417,-1.51942422 C5.27763655,-1.51942422 5.50149417,-1.2955666 5.50149417,-1.01942422 L5.50149417,11.0194242 C5.50149417,11.2955666 5.27763655,11.5194242 5.00149417,11.5194242 L4.99850583,11.5194242 C4.72236345,11.5194242 4.49850583,11.2955666 4.49850583,11.0194242 L4.49850583,-1.01942422 C4.49850583,-1.2955666 4.72236345,-1.51942422 4.99850583,-1.51942422 Z" id="path-1"></path>
        <path d="M4.99850583,-1.51942422 L5.00149417,-1.51942422 C5.27763655,-1.51942422 5.50149417,-1.2955666 5.50149417,-1.01942422 L5.50149417,11.0194242 C5.50149417,11.2955666 5.27763655,11.5194242 5.00149417,11.5194242 L4.99850583,11.5194242 C4.72236345,11.5194242 4.49850583,11.2955666 4.49850583,11.0194242 L4.49850583,-1.01942422 C4.49850583,-1.2955666 4.72236345,-1.51942422 4.99850583,-1.51942422 Z" id="path-3"></path>
    </defs>
    <g id="页面-1" stroke="none" stroke-width="1" fill="none" fill-rule="evenodd">
        <g id="新增、编辑账号" transform="translate(-1189.000000, -283.000000)">
            <g id="编组-32" transform="translate(681.000000, 215.000000)">
                <g id="清除图片" transform="translate(508.000000, 68.000000)">
                    <g id="编组-8" fill="#000000" opacity="0.600678943">
                        <path d="M0,0 L20,0 C23.3137085,-6.08718376e-16 26,2.6862915 26,6 L26,26 L26,26 C11.6405965,26 1.75851975e-15,14.3594035 0,0 L0,0 L0,0 Z" id="矩形"></path>
                    </g>
                    <g id="编组-7" transform="translate(10.000000, 6.000000)">
                        <mask id="mask-2" fill="white">
                            <use xlink:href="#path-1"></use>
                        </mask>
                        <use id="矩形" fill="#FFFFFF" transform="translate(5.000000, 5.000000) rotate(-315.000000) translate(-5.000000, -5.000000) " xlink:href="#path-1"></use>
                        <mask id="mask-4" fill="white">
                            <use xlink:href="#path-3"></use>
                        </mask>
                        <use id="矩形" fill="#FFFFFF" transform="translate(5.000000, 5.000000) rotate(-45.000000) translate(-5.000000, -5.000000) " xlink:href="#path-3"></use>
                    </g>
                </g>
            </g>
        </g>
    </g>
</svg>