<?xml version="1.0" encoding="UTF-8"?>
<svg width="37px" height="13px" viewBox="0 0 37 13" version="1.1" xmlns="http://www.w3.org/2000/svg" xmlns:xlink="http://www.w3.org/1999/xlink">
    <title>展开@2x</title>
    <g id="页面-1" stroke="none" stroke-width="1" fill="none" fill-rule="evenodd">
        <g id="编辑其中一条备份" transform="translate(-783.000000, -368.000000)">
            <g id="展开" transform="translate(801.500000, 374.500000) rotate(-90.000000) translate(-801.500000, -374.500000) translate(795.500000, 356.000000)">
                <path d="M-4.02786405,12.5 L16.027864,12.5 C17.5429523,12.5 18.9280048,13.3560095 19.6055728,14.7111456 L24.5,24.5 L24.5,24.5 L-12.5,24.5 L-7.60557281,14.7111456 C-6.92800475,13.3560095 -5.54295228,12.5 -4.02786405,12.5 Z" id="矩形" fill="#FFFFFF" transform="translate(6.000000, 18.500000) rotate(-90.000000) translate(-6.000000, -18.500000) "></path>
                <path d="M6.70620032,18.1275161 C6.79014308,18.0518565 6.90461049,17.9830751 7.01144674,18.0037095 C7.11828299,17.9865141 7.22130366,18.0621737 7.30524642,18.1275161 L9.89984102,20.4764015 C10.0333863,20.5967689 10.0333863,20.7893569 9.89984102,20.9097244 C9.76629571,21.0300919 9.55262321,21.0300919 9.4190779,20.9097244 L7.00381558,18.6743283 L4.5809221,20.9097244 C4.44737679,21.0300919 4.23370429,21.0300919 4.10015898,20.9097244 C3.96661367,20.7893569 3.96661367,20.5967689 4.10015898,20.4764015 L6.70620032,18.1275161 Z M6.70620032,15.1275161 C6.79014308,15.0518565 6.90461049,14.9830751 7.01144674,15.0037095 C7.11828299,14.9865141 7.22130366,15.0621737 7.30524642,15.1275161 L9.89984102,17.4764015 C10.0333863,17.5967689 10.0333863,17.7893569 9.89984102,17.9097244 C9.76629571,18.0300919 9.55262321,18.0300919 9.4190779,17.9097244 L7.00381558,15.6743283 L4.5809221,17.9097244 C4.44737679,18.0300919 4.23370429,18.0300919 4.10015898,17.9097244 C3.96661367,17.7893569 3.96661367,17.5967689 4.10015898,17.4764015 L6.70620032,15.1275161 Z" id="形状结合" fill="#2F323A" fill-rule="nonzero" transform="translate(7.000000, 18.000000) rotate(-90.000000) translate(-7.000000, -18.000000) "></path>
            </g>
        </g>
    </g>
</svg>