<?xml version="1.0" encoding="UTF-8"?>
<svg width="14px" height="14px" viewBox="0 0 14 14" version="1.1" xmlns="http://www.w3.org/2000/svg" xmlns:xlink="http://www.w3.org/1999/xlink">
    <title>KSQM</title>
    <g id="自动分配考台" stroke="none" stroke-width="1" fill="none" fill-rule="evenodd">
        <g id="icon" transform="translate(-16.000000, -241.000000)" fill="#FFFFFF" fill-rule="nonzero">
            <g id="KSQM" transform="translate(16.000000, 241.000000)">
                <path d="M0,14 L14,14 L14,12.8333716 L0,12.8333716 L0,14 Z M2.33333333,10.5001147 L2.33333333,7.82503568 L6.41666667,3.74183615 L9.09183333,6.41691516 L5.0085,10.5001147 L2.33333333,10.5001147 Z M8.75,1.40857927 L11.4251667,4.08365828 L9.91666667,5.59210885 L7.2415,2.91702984 L8.75,1.40857927 Z M12.6624167,4.49664475 L12.663,4.49606143 C12.8907228,4.26827732 12.8907228,3.89903924 12.663,3.67125513 L12.6624167,3.67067181 L9.163,0.171369816 L9.16241667,0.170786502 C8.93462509,-0.0569288338 8.56537491,-0.0569288338 8.33758333,0.170786502 L8.337,0.171369816 L1.16666667,7.34205151 L1.16666667,11.6667431 L5.4915,11.6667431 L12.6624167,4.49664475 Z" id="形状"></path>
            </g>
        </g>
    </g>
</svg>