<?xml version="1.0" encoding="UTF-8"?>
<svg width="14px" height="14px" viewBox="0 0 14 14" version="1.1" xmlns="http://www.w3.org/2000/svg" xmlns:xlink="http://www.w3.org/1999/xlink">
    <title>KGRC</title>
    <g id="自动分配考台" stroke="none" stroke-width="1" fill="none" fill-rule="evenodd">
        <g id="icon" transform="translate(-16.000000, -105.000000)">
            <g id="KGRC" transform="translate(16.000000, 105.000000)">
                <rect id="矩形" x="0" y="0" width="14" height="14"></rect>
                <path d="M3.72727273,6.46153846 L10.2727273,6.46153846 L10.2727273,5.38461538 L3.72727273,5.38461538 L3.72727273,6.46153846 Z M3.72727273,8.61538462 L8.09090909,8.61538462 L8.09090909,7.53846154 L3.72727273,7.53846154 L3.72727273,8.61538462 Z M3.72727273,10.7692308 L8.09090909,10.7692308 L8.09090909,9.69230769 L3.72727273,9.69230769 L3.72727273,10.7692308 Z" id="形状" fill="#FFFFFF" fill-rule="nonzero"></path>
                <path d="M12.4545455,1.07692308 L10.2727273,1.07692308 L10.2727273,0 L3.72727273,0 L3.72727273,1.07692308 L1.54545455,1.07692308 C1.21818182,1.07692308 1,1.29230769 1,1.61538462 L1,13.4615385 C1,13.7846154 1.21818182,14 1.54545455,14 L12.4545455,14 C12.7818182,14 13,13.7846154 13,13.4615385 L13,1.61538462 C13,1.29230769 12.7818182,1.07692308 12.4545455,1.07692308 Z M4.81818182,1.07692308 L9.18181818,1.07692308 L9.18181818,2.15384615 L4.81818182,2.15384615 L4.81818182,1.07692308 Z M11.9090909,12.9230769 L2.09090909,12.9230769 L2.09090909,2.15384615 L3.72727273,2.15384615 L3.72727273,3.23076923 L10.2727273,3.23076923 L10.2727273,2.15384615 L11.9090909,2.15384615 L11.9090909,12.9230769 Z" id="形状" fill="#FFFFFF" fill-rule="nonzero"></path>
            </g>
        </g>
    </g>
</svg>