<?xml version="1.0" encoding="UTF-8"?>
<svg width="14px" height="14px" viewBox="0 0 14 14" version="1.1" xmlns="http://www.w3.org/2000/svg" xmlns:xlink="http://www.w3.org/1999/xlink">
    <title>FEIYON</title>
    <g id="自动分配考台" stroke="none" stroke-width="1" fill="none" fill-rule="evenodd">
        <g id="icon" transform="translate(-16.000000, -142.000000)" fill="#FFFFFF" fill-rule="nonzero">
            <g id="FEIYON" transform="translate(16.000000, 142.000000)">
                <path d="M12.495,7.09 L11.315,8.271 C11.2935,8.344 11.2685,8.415 11.244,8.486 C11.1824706,8.66177127 11.109824,8.83345116 11.0265,9 C11.0175,9.0185 11.0095,9.0375 11,9.055 L11,11 L9.055,11 L8.9995,11.027 C8.834,11.1095 8.6625,11.182 8.4855,11.244 C8.4145,11.2685 8.3435,11.2935 8.2705,11.315 L7.09,12.495 C7.0595,12.496 7.03,12.5 6.9995,12.5 C6.969,12.5 6.9395,12.496 6.9095,12.495 L5.729,11.315 C5.656,11.2935 5.585,11.2685 5.5135,11.244 C5.33803293,11.1822974 5.1665404,11.1098263 5,11.027 C4.982,11.017 4.963,11.0095 4.9445,11 L3,11 L3,9.055 L2.9735,9 C2.8905675,8.83350839 2.81809364,8.6620092 2.7565,8.4865 C2.7315,8.415 2.7065,8.344 2.685,8.271 L1.505,7.09 C1.5045,7.06 1.5,7.03 1.5,7 C1.5,6.97 1.5045,6.94 1.505,6.91 L2.685,5.7295 C2.7065,5.6565 2.7315,5.5855 2.7565,5.514 C2.8185,5.3375 2.891,5.166 2.9735,5 L3,4.9445 L3,3 L4.9445,3 C4.963,2.991 4.982,2.9825 4.9995,2.9735 C5.166,2.891 5.3375,2.8185 5.514,2.7565 C5.5855,2.7315 5.6565,2.7065 5.729,2.685 L6.91,1.505 C6.94,1.5045 6.9695,1.5 7,1.5 C7.03,1.5 7.06,1.5045 7.09,1.505 L8.271,2.685 C8.344,2.7065 8.415,2.7315 8.486,2.7565 C8.663,2.8185 8.8345,2.891 9,2.9735 L9.055,3 L11,3 L11,4.9445 C11.0095,4.963 11.0175,4.982 11.0265,4.9995 C11.1095,5.166 11.1815,5.3375 11.244,5.514 C11.2685,5.5855 11.2935,5.6565 11.315,5.729 L12.495,6.91 C12.496,6.94 12.5,6.9695 12.5,7 C12.5,7.03 12.496,7.06 12.495,7.09 Z M13.293,6.293 L12.1865,5.1865 C12.131475,5.02905771 12.0692426,4.87422768 12,4.7225 L12,2 L9.278,2 C9.12622878,1.93100786 8.97140262,1.86894392 8.814,1.814 L7.707,0.707 L7,0 L6.293,0.707 L5.1865,1.814 C5.0285,1.869 4.8735,1.931 4.7225,2 L2,2 L2,4.7225 C1.931,4.8735 1.8695,5.0275 1.814,5.1865 L0.707,6.293 L0,7 L0.707,7.707 L1.814,8.814 C1.869,8.972 1.931,9.127 2,9.278 L2,12 L4.7225,12 C4.8735,12.0695 5.0285,12.131 5.1865,12.1865 L7,14 L8.814,12.1865 C8.972,12.131 9.127,12.0695 9.278,12 L12,12 L12,9.278 C12.069,9.127 12.131,8.972 12.1865,8.814 L13.293,7.707 L14,7 L13.293,6.293 Z" id="形状"></path>
                <path d="M8.6465,4.6465 L4.6465,8.6465 L5.3535,9.3535 L9.3535,5.3535 L8.6465,4.6465 Z M6.00000003,4.99999995 C5.99991069,4.64264509 5.80918159,4.31248318 5.4996585,4.13388308 C5.19013541,3.95528297 4.80884226,3.95537827 4.49940849,4.13413308 C4.18997472,4.31288788 3.99941068,4.64314509 3.99949997,5.0005 C3.99963808,5.55292282 4.44757718,6.00063806 5,6.00050002 C5.55242282,6.00036191 6.00013806,5.55242282 6.00000003,4.99999995 M8.99999995,7.99999997 C8.64264509,8.00008931 8.31248318,8.19081841 8.13388308,8.5003415 C7.95528297,8.80986459 7.95537827,9.19115774 8.13413308,9.50059151 C8.31288788,9.81002528 8.64314509,10.0005893 9.0005,10.0005 C9.55292282,10.0003619 10.0006381,9.55242282 10.0005,8.99999997 C10.0003619,8.44757718 9.55242282,7.99986194 8.99999995,7.99999997" id="形状"></path>
            </g>
        </g>
    </g>
</svg>