<?xml version="1.0" encoding="UTF-8"?>
<svg width="16px" height="16px" viewBox="0 0 16 16" version="1.1" xmlns="http://www.w3.org/2000/svg" xmlns:xlink="http://www.w3.org/1999/xlink">
    <title>切片</title>
    <g id="页面-1" stroke="none" stroke-width="1" fill="none" fill-rule="evenodd">
        <g id="体检信息采集-体检信息采集备份" transform="translate(-248.000000, -142.000000)" fill="#000000">
            <g id="Icon图标/Outlined线性/back" transform="translate(248.000000, 142.000000)">
                <rect id="矩形" fill-rule="nonzero" opacity="0" x="0" y="0" width="16" height="16"></rect>
                <path d="M13.7584534,7.40625 L4.61626587,7.40625 L10.0881409,2.65625 C10.1756409,2.5796875 10.1225159,2.4375 10.0068909,2.4375 L8.62407837,2.4375 C8.56314087,2.4375 8.50532837,2.459375 8.46001587,2.4984375 L2.98762467,7.24453164 C2.57039574,7.60638585 2.52550566,8.23795752 2.88735987,8.65518645 C2.91836931,8.69094128 2.95187796,8.72444955 2.98763314,8.75545859 L8.49439087,13.53125 L8.49439087,13.53125 L10.0053284,13.5625 C10.1209534,13.5625 10.1740784,13.41875 10.0865784,13.34375 L4.61626587,8.59375 L13.7584534,8.59375 C13.8272034,8.59375 13.8834534,8.5375 13.8834534,8.46875 L13.8834534,7.53125 C13.8834534,7.4625 13.8272034,7.40625 13.7584534,7.40625 Z" id="路径" fill-opacity="0.65"></path>
            </g>
        </g>
    </g>
</svg>