<?xml version="1.0" encoding="UTF-8"?>
<svg width="14px" height="14px" viewBox="0 0 14 14" version="1.1" xmlns="http://www.w3.org/2000/svg" xmlns:xlink="http://www.w3.org/1999/xlink">
    <title>KSRX</title>
    <g id="自动分配考台" stroke="none" stroke-width="1" fill="none" fill-rule="evenodd">
        <g id="icon" transform="translate(-16.000000, -210.000000)" fill="#FFFFFF" fill-rule="nonzero">
            <g id="KSRX" transform="translate(16.000000, 210.000000)">
                <path d="M7,6 C6.4485,6 6,5.5515 6,5 C6,4.4485 6.4485,4 7,4 C7.5515,4 8,4.4485 8,5 C8,5.5515 7.5515,6 7,6 M7,3 C5.897,3 5,3.897 5,5 C5,6.103 5.897,7 7,7 C8.103,7 9,6.103 9,5 C9,3.897 8.103,3 7,3" id="形状"></path>
                <path d="M11,11.463 L11,10.3705 C10.9980718,9.06218951 9.93781087,8.00215223 8.6295,8.0005 L5.3705,8.0005 C4.06238397,8.00215155 3.00220349,9.06188479 3,10.37 L3,11.4625 C1.7755,10.365 1,8.775 1,7 C1,3.686 3.6865,1 7,1 C10.3135,1 13,3.686 13,7 C13,8.775 12.2245,10.365 11,11.463 M4,12.1905 L4,10.3705 C4.00082716,9.61401758 4.61401733,9.00105112 5.3705,9.0005 L8.6295,9.0005 C9.38578774,9.00105063 9.99889734,9.61371287 10,10.37 L10,12.19 C8.14571826,13.2696972 5.85428174,13.2696972 4,12.19 M7,0 C3.14,0 0,3.14 0,7 C0,10.859 3.14,14 7,14 C10.86,14 14,10.859 14,7 C14,3.14 10.86,0 7,0" id="形状"></path>
            </g>
        </g>
    </g>
</svg>