<?xml version="1.0" encoding="UTF-8"?>
<svg width="14px" height="14px" viewBox="0 0 14 14" version="1.1" xmlns="http://www.w3.org/2000/svg" xmlns:xlink="http://www.w3.org/1999/xlink">
    <title>KSFY</title>
    <g id="页面-1" stroke="none" stroke-width="1" fill="none" fill-rule="evenodd">
        <g id="欠费信息管理" transform="translate(-16.000000, -241.000000)">
            <g id="KSFY" transform="translate(16.000000, 241.000000)">
                <path d="M9.09878907,4 L4.00000003,9.09878904 L4.90121099,10 L10,4.90121096 L9.09878907,4 Z M5.00000003,3.99975008 C4.99991071,3.64248449 4.80922928,3.31240512 4.49978357,3.13384966 C4.19033785,2.9552942 3.80914001,2.95538947 3.49978359,3.13409959 C3.19042717,3.31280972 2.99991076,3.64298437 3.00000003,4.00024995 C3.00013811,4.55253468 3.44796524,5.000138 4.00024997,5 C4.5525347,4.99986193 5.00013803,4.5520348 5.00000003,3.99975008 M9.99975011,9 C9.64248453,9.00008932 9.31240515,9.19077075 9.13384969,9.50021646 C8.95529423,9.80966218 8.9553895,10.19086 9.13409963,10.5002164 C9.31280975,10.8095729 9.6429844,11.0000893 10.00025,11 C10.5525347,10.9998619 11.000138,10.5520348 11,9.99975006 C10.999862,9.44746534 10.5520348,8.999862 9.99975011,9" id="xz" fill="#FFFFFF" fill-rule="nonzero"></path>
                <path d="M8.8722296,0.5 C10.5136685,0.5 11.1159211,0.653234454 11.717892,0.975172007 C12.2813208,1.27649702 12.723503,1.71867923 13.024828,2.28210802 C13.3467655,2.88407891 13.5,3.48633153 13.5,5.1277704 L13.5,5.1277704 L13.5,8.8722296 C13.5,10.5136685 13.3467655,11.1159211 13.024828,11.717892 C12.723503,12.2813208 12.2813208,12.723503 11.717892,13.024828 C11.1159211,13.3467655 10.5136685,13.5 8.8722296,13.5 L8.8722296,13.5 L5.1277704,13.5 C3.48633153,13.5 2.88407891,13.3467655 2.28210802,13.024828 C1.71867923,12.723503 1.27649702,12.2813208 0.975172007,11.717892 C0.653234454,11.1159211 0.5,10.5136685 0.5,8.8722296 L0.5,8.8722296 L0.5,5.1277704 C0.5,3.48633153 0.653234454,2.88407891 0.975172007,2.28210802 C1.27649702,1.71867923 1.71867923,1.27649702 2.28210802,0.975172007 C2.88407891,0.653234454 3.48633153,0.5 5.1277704,0.5 L5.1277704,0.5 Z" id="jx" stroke="#FFFFFF"></path>
            </g>
        </g>
    </g>
</svg>