<?xml version="1.0" encoding="UTF-8"?>
<svg width="14px" height="14px" viewBox="0 0 14 14" version="1.1" xmlns="http://www.w3.org/2000/svg" xmlns:xlink="http://www.w3.org/1999/xlink">
    <title>SY</title>
    <g id="自动分配考台" stroke="none" stroke-width="1" fill="none" fill-rule="evenodd">
        <g id="icon" transform="translate(-16.000000, -33.000000)" stroke="#FFFFFF">
            <g id="SY" transform="translate(16.000000, 33.000000)">
                <path d="M6.98836644,1.14844073 C7.33899722,1.14812676 7.68973763,1.27023214 7.97200363,1.51481829 L7.97200363,1.51481829 L12.982294,5.8562822 C13.3110988,6.14119463 13.5,6.55483202 13.5,6.98990404 L13.5,6.98990404 L13.5,12 C13.5,12.4142136 13.3321068,12.7892136 13.0606602,13.0606602 C12.7892136,13.3321068 12.4142136,13.5 12,13.5 L12,13.5 L2,13.5 C1.58578644,13.5 1.21078644,13.3321068 0.939339828,13.0606602 C0.667893219,12.7892136 0.5,12.4142136 0.5,12 L0.5,12 L0.5,6.98774052 C0.5,6.55360623 0.68809096,6.14076516 1.01567736,5.85587969 L1.01567736,5.85587969 L6.00538697,1.5165793 C6.28721449,1.27148803 6.63773565,1.1487547 6.98836644,1.14844073 Z" id="矩形"></path>
                <rect id="矩形" fill="#006EFF" x="3.5" y="10.5" width="7" height="1"></rect>
            </g>
        </g>
    </g>
</svg>