<?xml version="1.0" encoding="UTF-8"?>
<svg width="14px" height="14px" viewBox="0 0 14 14" version="1.1" xmlns="http://www.w3.org/2000/svg" xmlns:xlink="http://www.w3.org/1999/xlink">
    <title>ZHGL</title>
    <g id="自动分配考台" stroke="none" stroke-width="1" fill="none" fill-rule="evenodd">
        <g id="icon" transform="translate(-16.000000, -315.000000)" fill="#FFFFFF" fill-rule="nonzero">
            <g id="ZHGL" transform="translate(16.000000, 315.000000)">
                <path d="M7,9 C5.86455882,9 4.94117647,8.103 4.94117647,7 C4.94117647,5.897 5.86455882,5 7,5 C8.13544118,5 9.05882353,5.897 9.05882353,7 C9.05882353,8.103 8.13544118,9 7,9 M7,4 C5.29441474,4 3.91176471,5.34314575 3.91176471,7 C3.91176471,8.65685425 5.29441474,10 7,10 C8.70558526,10 10.0882353,8.65685425 10.0882353,7 C10.0882353,5.34314575 8.70558526,4 7,4" id="形状"></path>
                <path d="M9.91477941,10.493 C9.7103639,10.6538216 9.49239019,10.7976617 9.26316176,10.923 C9.24360294,10.933 9.22507353,10.946 9.205,10.9565 C9.02804114,11.0481743 8.84510201,11.1285123 8.65735294,11.197 L8.34286765,12.3375 L8.19360294,12.878 C8.18433824,12.88 8.17507353,12.883 8.16529412,12.884 L8.02477941,12.9095 C7.96816176,12.9195 7.91051471,12.9265 7.85338235,12.9345 C7.57081374,12.9745776 7.28556217,12.9941318 7,12.9930464 C6.91610294,12.9930464 6.83169118,12.991 6.74779412,12.988 L6.60882353,12.9805 C6.45417761,12.9712487 6.29998204,12.9559027 6.14661765,12.9345 C6.09,12.9265 6.03286765,12.9195 5.97573529,12.9095 C5.92880735,12.9016497 5.88196648,12.8933159 5.83522059,12.8845 L5.80691176,12.878 L5.65764706,12.338 L5.34264706,11.197 C5.07481166,11.0966945 4.81719914,10.9723217 4.57316176,10.8255 C4.40349969,10.7249571 4.24068656,10.6138934 4.08573529,10.493 L2.91220588,10.7985 L2.35632353,10.9435 L2.33727941,10.922 C2.30555523,10.8875665 2.27449589,10.8525604 2.24411765,10.817 C2.20705882,10.7735 2.17154412,10.7285 2.13551471,10.684 C2.03905354,10.5660998 1.94819865,10.443972 1.86323529,10.318 C1.8375,10.2815 1.81330882,10.2435 1.78860294,10.206 C1.6978153,10.0683688 1.61365603,9.9267162 1.53639706,9.7815 C1.51488697,9.74170394 1.49378299,9.70170198 1.47308824,9.6615 C1.44838235,9.613 1.42367647,9.5645 1.40051471,9.5155 C1.35907391,9.42781761 1.31994352,9.33912207 1.28316176,9.2495 C1.26154412,9.1975 1.23992647,9.1455 1.21933824,9.0935 L1.17147059,8.9615 L1.16323529,8.935 L1.56830882,8.5415 L2.42992647,7.7035 C2.39453782,7.49012804 2.37475789,7.27458827 2.37073529,7.0585 C2.37073529,7.0385 2.36764706,7.0195 2.36764706,7 C2.36764706,6.98 2.37073529,6.9615 2.37073529,6.9415 C2.37475789,6.72541173 2.39453782,6.50987196 2.42992647,6.2965 L1.56830882,5.4585 L1.16323529,5.065 C1.18127056,5.01194651 1.19997293,4.95910923 1.21933824,4.9065 C1.23992647,4.854 1.26154412,4.802 1.28316176,4.7495 C1.49610052,4.23477701 1.78307275,3.75197446 2.13551471,3.3155 C2.17154412,3.271 2.20705882,3.2265 2.24360294,3.183 C2.27448529,3.148 2.30536765,3.113 2.33727941,3.078 L2.35632353,3.0565 L2.91220588,3.2015 L4.08573529,3.5065 C4.23963235,3.385 4.40330882,3.2765 4.57316176,3.174 L4.63852941,3.1355 C4.86299563,3.00527496 5.09856843,2.89403225 5.34264706,2.803 L5.65764706,1.662 L5.80691176,1.122 L5.83522059,1.1155 C5.88154412,1.107 5.92786765,1.098 5.97522059,1.0905 C6.03183824,1.081 6.09051471,1.073 6.14816176,1.0655 C6.24595588,1.052 6.34375,1.0405 6.44308824,1.031 C6.54481577,1.02223515 6.64676266,1.01606636 6.74882353,1.0125 C6.83220588,1.009 6.91610294,1.0065 7,1.0065 C7.08389706,1.0065 7.16830882,1.009 7.25169118,1.0125 C7.35375205,1.01606636 7.45569894,1.02223515 7.55742647,1.031 C7.65522059,1.04 7.75404412,1.052 7.85183824,1.066 C7.91,1.073 7.96764706,1.081 8.02529412,1.09 L8.16529412,1.1155 L8.19360294,1.1215 L8.34286765,1.662 L8.65683824,2.8025 C8.84522059,2.873 9.02948529,2.9505 9.205,3.043 C9.22507353,3.0535 9.24360294,3.0665 9.26316176,3.077 C9.49323529,3.203 9.71095588,3.346 9.91477941,3.507 L11.0883088,3.201 L11.6436765,3.0565 L11.6632353,3.0775 C11.6941176,3.1125 11.7260294,3.1475 11.7558824,3.183 C11.7929412,3.226 11.8279412,3.271 11.8639706,3.315 C11.9257353,3.391 11.9854412,3.468 12.0430882,3.547 C12.075,3.591 12.1058824,3.636 12.1367647,3.6805 L12.2119118,3.7935 C12.3274765,3.9693011 12.4328131,4.15125279 12.5274265,4.3385 C12.5956726,4.47339324 12.6588515,4.61065043 12.7168382,4.75 C12.7384559,4.802 12.7605882,4.854 12.7811765,4.907 C12.7976471,4.9505 12.8130882,4.994 12.8285294,5.038 C12.8316176,5.047 12.8336765,5.056 12.8372794,5.065 L12.4322059,5.4585 L11.5700735,6.296 C11.6009559,6.4845 11.62,6.6765 11.6261765,6.8725 C11.6272059,6.915 11.6323529,6.9575 11.6323529,7 C11.6323529,7.043 11.6272059,7.085 11.6261765,7.1275 C11.6199059,7.32047261 11.6009951,7.5128617 11.5695588,7.7035 L12.4322059,8.5415 L12.8372794,8.935 L12.8285294,8.9615 C12.8130882,9.0055 12.7976471,9.049 12.7811765,9.0925 C12.7605882,9.1455 12.7389706,9.1975 12.7168382,9.25 C12.6591385,9.38946804 12.5959548,9.52673554 12.5274265,9.6615 C12.4692231,9.77480921 12.4077777,9.88651931 12.3431618,9.9965 C12.3009559,10.0675 12.2566912,10.137 12.2119118,10.2065 C12.1872059,10.2435 12.1625,10.2815 12.1372794,10.318 C12.0521615,10.4441523 11.9611346,10.5664473 11.8644853,10.6845 C11.8284559,10.7295 11.7924265,10.7735 11.7563971,10.8165 C11.7255147,10.8525 11.6946324,10.887 11.6632353,10.922 C11.6570588,10.9295 11.6503676,10.936 11.6436765,10.943 L11.0877941,10.7985 L9.91426471,10.4935 L9.91477941,10.493 Z M5.00705882,12.6877805 C4.96485294,12.6707073 4.92213235,12.6548537 4.88044118,12.636561 L4.82691176,12.6133902 L4.77338235,12.589 C4.85213235,12.6255854 4.93191176,12.6572927 5.01169118,12.689 L5.00654412,12.6877805 L5.00705882,12.6877805 Z M3.08617647,11.633 L3.04345588,11.598 C3.00897059,11.5695 2.97551471,11.54 2.94154412,11.511 L2.93794118,11.508 C3.00176471,11.563 3.06558824,11.617 3.13198529,11.6685 L3.08566176,11.6335 L3.08617647,11.633 Z M13.1193382,7.7945 L13.11625,7.792 L13.1147059,7.79 L13.1141912,7.79 L12.6447794,7.3335 C12.6514706,7.2225 12.6617647,7.1125 12.6617647,7 C12.6617647,6.887 12.6514706,6.777 12.6447794,6.666 L13.1141912,6.21 L13.11625,6.208 L13.1193382,6.205 L13.9994853,5.35 C13.9218431,5.04500169 13.8229635,4.74547893 13.7035294,4.4535 C13.5739194,4.12484454 13.4190718,3.806114 13.2402941,3.5 C13.0565441,3.19 12.845,2.905 12.6221324,2.6335 C12.4214211,2.38709902 12.203897,2.1540744 11.9710294,1.936 L10.7686765,2.249 L10.7676471,2.2495 L10.7640441,2.2505 L10.7614706,2.251 L10.7609559,2.251 L10.1268382,2.416 C9.93322565,2.29268044 9.7319331,2.18113338 9.52411765,2.082 L9.35323529,1.462 L9.35272059,1.461 L9.35220588,1.4585 L9.35117647,1.455 L9.35117647,1.454 L9.02897059,0.286 C8.71824191,0.199085333 8.40183948,0.132601518 8.08191176,0.087 C7.72403859,0.0316212824 7.36237582,0.0025388175 7,0 C6.63147059,0 6.27220588,0.035 5.91860294,0.087 C5.59536765,0.1345 5.27882353,0.1985 4.97154412,0.286 L4.64933824,1.454 L4.64882353,1.455 L4.64779412,1.4585 L4.64727941,1.461 L4.64727941,1.462 L4.47588235,2.082 C4.26794118,2.183 4.06566176,2.2925 3.87316176,2.417 L3.23955882,2.252 L3.23852941,2.251 L3.23595588,2.251 L3.23235294,2.2495 L3.23132353,2.2495 L2.02948529,1.936 C1.79735294,2.151 1.58169118,2.386 1.37838235,2.6335 C1.14996457,2.90676893 0.943149277,3.19642833 0.759705882,3.5 C0.575441176,3.81 0.427205882,4.13 0.296470588,4.4535 C0.17715906,4.74557008 0.078113978,5.04507337 0,5.35 L0.880147059,6.205 L0.880147059,6.206 L0.88375,6.2085 L0.885294118,6.2105 L0.885294118,6.211 L1.35522059,6.667 C1.34852941,6.7775 1.33823529,6.8875 1.33823529,7 C1.33823529,7.1125 1.34852941,7.222 1.35573529,7.333 L0.886323529,7.789 L0.885808824,7.7895 L0.884264706,7.7915 L0.881176471,7.7945 L0.880661765,7.795 L0,8.65 C0.0756617647,8.952 0.177058824,9.251 0.295955882,9.546 C0.426691176,9.8695 0.574926471,10.19 0.759191176,10.5 C0.943455882,10.81 1.15448529,11.095 1.37786765,11.366 C1.58169118,11.614 1.79683824,11.8485 2.02897059,12.0635 L3.23080882,11.7505 L3.23183824,11.7505 L3.23544118,11.7495 L3.23801471,11.7485 L3.23904412,11.7485 L3.87213235,11.5835 C4.06514706,11.7075 4.26742647,11.8165 4.47536765,11.9175 L4.64676471,12.538 L4.64676471,12.5415 L4.64830882,12.545 L4.64830882,12.5455 L4.97102941,13.7135 C5.27830882,13.801 5.59485294,13.8655 5.91808824,13.9125 C6.27560551,13.9680225 6.63692436,13.9972721 6.99897059,14 C7.36852941,14 7.72727941,13.965 8.08139706,13.9125 C8.40136976,13.8671398 8.7177889,13.8006524 9.02845588,13.7135 L9.35066176,12.5455 L9.35169118,12.5415 L9.35272059,12.5385 L9.52360294,11.9185 C9.73154412,11.817 9.93382353,11.7075 10.1258088,11.5835 L10.7604412,11.7485 L10.7604412,11.749 L10.7635294,11.7495 L10.7671324,11.7505 L10.7681618,11.7505 L11.9705147,12.0635 C12.2021324,11.8485 12.4177941,11.614 12.6216176,11.366 C12.8500398,11.0927976 13.0570188,10.8033169 13.2408088,10.5 C13.4250735,10.19 13.5727941,9.87 13.7035294,9.546 C13.8229412,9.251 13.9243382,8.9525 14,8.65 L13.1198529,7.795 L13.1193382,7.795 L13.1193382,7.7945 Z" id="形状"></path>
            </g>
        </g>
    </g>
</svg>