<?xml version="1.0" encoding="UTF-8"?>
<svg width="140px" height="33px" viewBox="0 0 140 33" version="1.1" xmlns="http://www.w3.org/2000/svg" xmlns:xlink="http://www.w3.org/1999/xlink">
    <title>编组 26</title>
    <g id="控件" stroke="none" stroke-width="1" fill="none" fill-rule="evenodd">
        <g id="编组-26">
            <path d="M4,0 L136,0 C138.209139,-4.05812251e-16 140,1.790861 140,4 L140,33 L140,33 L0,33 L0,4 C-2.705415e-16,1.790861 1.790861,4.05812251e-16 4,0 Z" id="矩形" fill="#006EFF"></path>
            <g id="编组" transform="translate(35.000000, 7.000000)" fill="#FFFFFF">
                <text id="缺失补录" font-family="MicrosoftYaHei, Microsoft YaHei" font-size="14" font-weight="normal" line-spacing="14">
                    <tspan x="15" y="15">缺失补录</tspan>
                </text>
                <g id="新建" transform="translate(0.000000, 3.000000)" fill-rule="nonzero">
                    <path d="M10.8725166,3.44471915 L7.63990066,0.140944238 C7.54713426,0.0433915809 7.41740792,-0.00774553521 7.28476821,0.000953781654 L0.455298025,0.000953781654 C0.334545482,0.000953778023 0.218738648,0.0501169522 0.133353705,0.137627967 C0.0479687618,0.225138981 0,0.343829389 0,0.467588655 L0,13.5333651 C0,13.6571244 0.0479687618,13.7758148 0.133353705,13.8633258 C0.218738648,13.9508368 0.334545482,14 0.455298025,14 L10.544702,14 C10.6654545,14 10.7812614,13.9508368 10.8666463,13.8633258 C10.9520312,13.7758148 11,13.6571244 11,13.5333651 L11,3.73403277 C10.991801,3.62528891 10.9466948,3.52292395 10.8725166,3.44471915 Z M9.63410595,3.49138264 L7.56705298,3.49138264 L7.56705298,1.382193 L9.63410595,3.49138264 Z M0.910596036,13.0667303 L0.910596036,0.934223528 L6.65645695,0.934223528 L6.65645695,3.95801751 C6.65645695,4.21573283 6.86030082,4.42465238 7.11175496,4.42465238 L10.089404,4.42465238 L10.089404,13.0667303 L0.910596036,13.0667303 Z" id="形状"></path>
                    <path d="M8.19536423,7.46711176 L5.98261589,7.46711176 L5.98261589,5.19926627 C5.98261588,4.94155096 5.77877202,4.73263142 5.52731788,4.73263142 C5.27586374,4.73263142 5.07201988,4.94155096 5.07201987,5.19926627 L5.07201987,7.46711176 L2.73178808,7.46711176 C2.48033393,7.46711176 2.27649007,7.67603131 2.27649007,7.93374664 C2.27848371,8.01280094 2.30044576,8.08997432 2.34023179,8.15773138 C2.41007614,8.33198475 2.57530129,8.44610467 2.75910596,8.447045 L5.03559603,8.447045 L5.03559603,10.7802194 C5.03559603,10.946932 5.12237534,11.1009807 5.26324503,11.184337 C5.40411473,11.2676933 5.57767336,11.2676933 5.71854306,11.184337 C5.85941275,11.1009807 5.94619206,10.946932 5.94619206,10.7802194 L5.94619206,8.4657104 L8.22268211,8.4657104 C8.47413626,8.4657104 8.67798013,8.25679085 8.67798013,7.99907553 C8.67598648,7.92002122 8.65402444,7.84284784 8.61423841,7.77509078 C8.55022686,7.59350206 8.38371037,7.4710701 8.19536423,7.46711176 Z" id="路径"></path>
                </g>
            </g>
        </g>
    </g>
</svg>
